<svg xmlns="http://www.w3.org/2000/svg" xmlns:xlink="http://www.w3.org/1999/xlink" width="660" height="368" viewBox="0 0 660 368">
    <defs>
        <path id="a" d="M.142.263h.64v12.645h-.64z"/>
        <path id="b" d="M.114.132h14.702v15.852H.114z"/>
        <path id="c" d="M.08.132h19.913v15.852H.08z"/>
        <path id="e" d="M.056.132H19.97v15.852H.056z"/>
        <path id="g" d="M.149.145h5.673v3.69H.149z"/>
        <path id="i" d="M.494.36h49.088v12.324H.494z"/>
        <path id="k" d="M0 .024h52.891v17.64H0z"/>
        <path id="m" d="M.006.428h75.799v119.188H.005z"/>
    </defs>
    <g fill="none" fill-rule="evenodd">
        <g transform="matrix(-1 0 0 1 660 0)">
            <path fill="#FFF" d="M331.387 75.957c18.1 5.558 34.96 6.632 50.582 3.22a98.969 98.969 0 0 1 9-8.565C432.642 35.644 494.915 41.25 530.06 83.135c35.145 41.885 29.854 104.186-11.82 139.153-23.205 19.472-52.798 26.362-80.538 21.413-16.14 1.768-28.15 4.39-36.034 7.87-6.828 3.013-17.24 10.6-31.24 22.762a134.033 134.033 0 0 1-19.868 20.65c-56.692 47.57-141.357 40.004-189.105-16.9-47.748-56.903-40.497-141.596 16.195-189.166 44.473-37.317 106.16-40.704 153.737-12.96z"/>
            <circle cx="16" cy="348" r="16" fill="#FFF"/>
            <circle cx="93" cy="323" r="36" fill="#FFF"/>
            <circle cx="76" cy="183" r="27" fill="#FFF"/>
            <circle cx="57" cy="53" r="23" fill="#FFF"/>
            <circle cx="592" cy="230" r="32" fill="#FFF"/>
            <circle cx="522" cy="330" r="38" fill="#FFF"/>
            <circle cx="637" cy="23" r="23" fill="#FFF"/>
            <circle cx="186.5" cy="23.5" r="22.5" fill="#FFF"/>
            <circle cx="405.5" cy="300.5" r="22.5" fill="#FFF"/>
            <circle cx="609" cy="92" r="34" fill="#FFF"/>
            <path fill="#ACCAEB" fill-rule="nonzero" d="M355.472 335.55h-12.623c-1.354 0-2.452 1.12-2.452 2.5 0 1.381 1.098 2.5 2.452 2.5h12.366l-2.975 2.917c-.982.962-.981 2.555.002 3.557.983 1.001 2.575 1.033 3.557.07l7.465-7.318c.996-.976.979-2.595-.037-3.592l-7.59-7.446c-1.001-.983-2.593-.984-3.556-.002-.962.981-.93 2.574.071 3.557l3.32 3.257zM197.925 51.55h12.624c1.353 0 2.451 1.12 2.451 2.5 0 1.381-1.098 2.5-2.451 2.5h-12.366l2.975 2.917c.982.962.98 2.555-.002 3.557-.983 1.001-2.576 1.033-3.558.07l-7.465-7.318c-.995-.976-.978-2.595.037-3.592l7.59-7.446c1.001-.983 2.594-.984 3.556-.002.963.981.931 2.574-.07 3.557l-3.32 3.257z"/>
        </g>
        <path fill="#C5D9EF" d="M131.101 84.994S119.797 79.564 104.976 65C89.903 80.304 79.1 85 79.1 85l52-.006z"/>
        <path fill="#ACCAEB" d="M131.874 86.17H79.101l-11.694 32.66 21.843-.004 57.653.174z"/>
        <path fill="#C5D9EF" d="M106.387 118.826l40.516.174-14.014-33H98.837c-.173.01-1.86 5.687-3.772 12.317-2.685 9.314-5.815 20.509-5.815 20.509h17.137z"/>
        <path fill="#ACCAEB" d="M106.101 115.504a20.357 20.357 0 0 1 3.484 2.496h20.516l-10.67-29.976L107.425 88l-1.323 27.504z"/>
        <path fill="#94BCE8" d="M79.088 87h54.026c.546 0 .987-.896.987-2s-.441-2-.987-2H79.088c-.545 0-.987.896-.987 2s.442 2 .987 2M100 62a5 5 0 1 0 10 0 5 5 0 0 0-10 0"/>
        <path fill="#DDE7F2" d="M129.88 118l7.102-12.303c.258-.449.081-1.034-.376-1.243L107.1 91l22.78 27z"/>
        <path fill="#94BCE8" d="M106.101 119h24.347l-22.883-28z"/>
        <path fill="#DDE7F2" d="M99.93 115.55c.059-1.303-.861-2.4-2.055-2.45-.038-.002-.075.001-.114.002.02-.094.032-.19.037-.289.04-.886-.532-1.63-1.278-1.661a1.17 1.17 0 0 0-.549.113l.004-.041c.038-.835-.557-1.537-1.328-1.57a1.302 1.302 0 0 0-.408.049c.085-1.94-1.265-3.57-3.018-3.643-1.557-.066-2.907 1.122-3.253 2.748-.232-.247-.523-.4-.844-.414-.373-.015-.722.16-.997.46-.48-.564-1.153-.928-1.914-.96-1.542-.064-2.854 1.257-2.932 2.952-.002.052 0 .102 0 .153-1.121.069-2.038 1.018-2.093 2.219a2.357 2.357 0 0 0 .526 1.605c-.853.095-1.54.831-1.581 1.756-.042.924.573 1.713 1.413 1.88.764.83 3.238 1.362 9.63 1.372 7.471.01 9.299-.529 9.388-1.452.08-.13.314-.532.507-1.05a2.457 2.457 0 0 0 .859-1.778"/>
        <path fill="#C5D9EF" d="M64.063 114.764c.16-.001.318.016.472.048.053-.079.112-.156.178-.232-.008-.053-.019-.106-.024-.16-.14-1.456 1.017-2.642 2.585-2.65.475-.001.934.107 1.347.297l-.001-.005c-.156-1.62.943-2.939 2.454-2.946 1.294-.006 2.468.952 2.879 2.243a2.35 2.35 0 0 1 1.908-.989c1.512-.007 2.87 1.358 3.033 3.05.019.198.02.392.005.58.19-.045.39-.072.601-.073 1.284-.006 2.412.86 2.567 1.95 1.531.033 2.681.702 2.89 1.514 1.136 4.419-20.435 2.135-20.435 2.135-1.26.006-2.383-1.055-2.51-2.37-.127-1.316.791-2.387 2.051-2.392"/>
        <g>
            <path fill="#C5D9EF" d="M294.436 306.2H277.42c-1.502.014-2.432 2.016-2.42 3.912l.009 1.577 20.99.511s-.597-5.711-1.917-5.7l.353-.3z"/>
            <path fill="#ACCAEB" d="M325 311.806l-1.707-2.656c-.734-1.142-2.46-2.96-3.696-2.95h-25.439c-.87.008-1.426 1.069-1.026 1.958l1.836 4.042 30.032-.394z"/>
            <path fill="#DDE7F2" d="M301.97 312.2l.03 34.668-67.93.332c-4.36-.763-8.649-1.686-12.82-2.8l-.239-21.32c-.043-3.86.037-7.381.239-10.562l80.72-.318z"/>
            <path fill="#C5D9EF" d="M305 345.539l-83.899.661-.101-14.545 84-.455z"/>
            <path fill="#ACCAEB" d="M240 315.2h-14v31h14z"/>
            <path fill="#C5D9EF" d="M329.747 319.037A16.333 16.333 0 0 1 332 327.18v13.78l-31.105.24v-18.48L294 311.2h29.966a2.027 2.027 0 0 1 1.767.991l4.014 6.846z"/>
            <path fill="#ACCAEB" d="M308.96 344.2l.04 4h-88v-3.373z"/>
            <path fill="#ACCAEB" d="M332 340.2c.018 3.165-2 5.75-4.508 5.773l-2.067.02.024 4.044-17.436.163-.029-4.888-3.082.029c-2.14.02-3.886-2.152-3.902-4.852l31-.289z"/>
            <path fill="#DDE7F2" d="M305 339.222a3 3 0 1 0 6-.044 3 3 0 0 0-6 .044M326 339.222a3 3 0 1 0 6-.044 3 3 0 0 0-6 .044M322.447 312.2l-9.515.07a.931.931 0 0 0-.774 1.446l4.71 7.067a.94.94 0 0 0 .788.417l9.412-.069a.931.931 0 0 0 .78-1.438l-4.607-7.068a.94.94 0 0 0-.794-.425M307.448 312.2l-9.516.07a.931.931 0 0 0-.774 1.446l4.71 7.067c.175.262.471.42.788.417l9.412-.069a.932.932 0 0 0 .78-1.438l-4.607-7.068a.938.938 0 0 0-.793-.425"/>
            <path fill="#C5D9EF" d="M285.057 322.2a.99.99 0 0 1-.997-.98l-.06-8.025a.989.989 0 0 1 .983-.995l7.768.031a.99.99 0 0 1 .882.525l4.25 7.993a.988.988 0 0 1-.867 1.451h-11.959z"/>
        </g>
        <g>
            <path fill="#C5D9EF" d="M124 201H76v75h49v-74a1 1 0 0 0-1-1z"/>
            <path fill="#7BADE4" d="M119.214 228.048H111v-1.62h8.214zM119.214 239.381H111v-1.62h8.214z"/>
            <path fill="#94BCE8" d="M119.858 241h11.856c1.262 0 2.286-1.318 2.286-2.944v-11.112c0-1.626-1.024-2.944-2.286-2.944h-11.856c-1.263 0-2.287 1.318-2.287 2.944v11.112c0 1.626 1.024 2.944 2.287 2.944"/>
            <path fill="#DDE7F2" d="M117.393 241h11.856c1.263 0 2.287-1.318 2.287-2.944v-11.112c0-1.626-1.024-2.944-2.287-2.944h-11.856c-1.262 0-2.286 1.318-2.286 2.944v11.112c0 1.626 1.024 2.944 2.286 2.944"/>
            <path fill="#94BCE8" d="M119.214 238.571h2.12v-4.891h3.97v4.891h2.125v-11.333h-2.126v4.442h-3.97v-4.442h-2.119z"/>
            <path fill="#ACCAEB" d="M58.206 271.62a2.1 2.1 0 0 0-.41.04 1.998 1.998 0 0 0-.155-.19c.007-.043.016-.086.02-.13.123-1.191-.883-2.162-2.247-2.168a2.915 2.915 0 0 0-1.171.243v-.004c.136-1.326-.82-2.405-2.134-2.411-1.124-.005-2.145.779-2.503 1.835a2.084 2.084 0 0 0-1.659-.809c-1.314-.005-2.495 1.112-2.637 2.495-.017.162-.017.32-.005.475a2.447 2.447 0 0 0-.523-.06c-1.116-.004-2.097.704-2.232 1.595-1.33.028-2.33.575-2.512 1.24-.988 3.615 17.769 1.746 17.769 1.746 1.095.005 2.072-.863 2.183-1.94.11-1.075-.688-1.952-1.784-1.956"/>
            <path fill="#DDE7F2" d="M102 201H54v75h49v-74a1 1 0 0 0-1-1z"/>
            <path fill="#ACCAEB" d="M89 253H68v23h21zM98 223h-8v9h8zM98 208h-8v9h8zM98 238h-8v9h8zM67 223h-8v9h8zM67 208h-8v9h8zM67 238h-8v9h8zM128 199H50v5h78z"/>
            <path fill="#C5D9EF" d="M93 253H64v2h29zM100 223H89v2h11zM100 208H89v2h11zM100 238H89v2h11zM69 223H58v2h11zM69 208H58v2h11zM69 238H58v2h11z"/>
            <path fill="#ACCAEB" d="M96.07 272.435c-.059-1.304.861-2.4 2.055-2.45.038-.002.075 0 .114 0a1.864 1.864 0 0 1-.037-.288c-.04-.886.532-1.63 1.278-1.661a1.17 1.17 0 0 1 .549.113l-.004-.041c-.038-.835.557-1.537 1.328-1.57.14-.005.278.012.408.049-.085-1.94 1.265-3.57 3.018-3.643 1.557-.065 2.907 1.122 3.253 2.748.232-.247.523-.4.844-.414.373-.015.722.16.997.46.48-.564 1.153-.928 1.914-.96 1.542-.064 2.854 1.257 2.932 2.952.002.052 0 .102 0 .153 1.121.069 2.038 1.019 2.093 2.219a2.357 2.357 0 0 1-.526 1.605c.853.095 1.54.831 1.581 1.756.042.924-.573 1.713-1.413 1.88-.764.831-3.238 1.362-9.63 1.372-7.471.01-9.299-.529-9.388-1.452a6.313 6.313 0 0 1-.507-1.05 2.457 2.457 0 0 1-.859-1.778"/>
            <path fill="#94BCE8" d="M131.937 271.648c-.16-.001-.318.016-.472.048a2.418 2.418 0 0 0-.178-.232c.008-.053.019-.106.024-.16.14-1.456-1.017-2.642-2.585-2.649a3.184 3.184 0 0 0-1.347.297l.001-.005c.156-1.62-.943-2.94-2.454-2.947-1.294-.006-2.468.952-2.879 2.243a2.35 2.35 0 0 0-1.908-.989c-1.512-.007-2.87 1.359-3.033 3.05-.019.198-.02.392-.005.58a2.655 2.655 0 0 0-.601-.073c-1.284-.006-2.412.86-2.567 1.95-1.531.033-2.681.702-2.89 1.514-1.136 4.419 20.435 2.135 20.435 2.135 1.26.006 2.383-1.055 2.51-2.37.127-1.316-.791-2.387-2.051-2.392"/>
        </g>
        <g transform="translate(491 227)">
            <path fill="#C5D9EF" d="M118.66 43.981L35 44l7.653-22.105L67.132 20s31.987.42 32.851 1.263c.865.842 7.493-.421 10.663 2.947 3.17 3.369 5.094 4.795 5.763 5.474 2.354 2.386 3.104 7.152 2.25 14.297z"/>
            <path fill="#ACCAEB" d="M107.923 35.009c3.872.194 6.955 3.664 6.955 7.917s-3.083 7.723-6.955 7.918v.008h-5.907v-.008c-3.9-.161-7.016-3.643-7.016-7.918 0-4.274 3.116-7.756 7.016-7.918V35h5.907v.009z"/>
            <path fill="#DDE7F2" d="M102.948 42.201a4.667 4.667 0 1 0 9.334 0 4.667 4.667 0 0 0-9.334 0"/>
            <path fill="#ACCAEB" d="M54.923 35.009c3.872.194 6.955 3.664 6.955 7.917s-3.083 7.723-6.955 7.918v.008h-5.907v-.008c-3.9-.161-7.016-3.643-7.016-7.918 0-4.274 3.116-7.756 7.016-7.918V35h5.907v.009z"/>
            <path fill="#DDE7F2" d="M49.948 42.201a4.667 4.667 0 1 0 9.334 0 4.667 4.667 0 0 0-9.334 0"/>
            <g transform="translate(11 34)">
                <mask id="d" fill="#fff">
                    <use xlink:href="#c"/>
                </mask>
                <path fill="#ACCAEB" d="M6.959.14V.132h5.793v.004c.029 0 .056-.004.085-.004 3.952 0 7.156 3.548 7.156 7.926 0 4.377-3.204 7.926-7.156 7.926-.029 0-.056-.004-.085-.005v.005H6.959v-.008c-3.824-.161-6.88-3.643-6.88-7.918S3.136.3 6.96.14" mask="url(#d)"/>
            </g>
            <g transform="translate(67 34)">
                <mask id="f" fill="#fff">
                    <use xlink:href="#e"/>
                </mask>
                <path fill="#C5D9EF" d="M6.936.14V.132h5.793v.004c.028 0 .056-.004.085-.004 3.952 0 7.156 3.548 7.156 7.926 0 4.377-3.204 7.926-7.156 7.926-.03 0-.057-.004-.085-.005v.005H6.936v-.008c-3.824-.161-6.88-3.643-6.88-7.918S3.112.3 6.936.14" mask="url(#f)"/>
            </g>
            <path fill="#DDE7F2" d="M23.393 19.55c1.328-.742 2.156-1.462 2.484-2.16l5.98-12.772C33.114 1.804 35.858 0 38.88 0h81.203a3 3 0 0 1 3 3v38.438c0 2.39-2.877 4.347-5.16 4.542-.008-7.377-5.027-13.354-11.216-13.354-6.195 0-10.783 5.974-10.783 13.36L65.335 46c0-7.386-5.022-13.374-11.217-13.374-4.891 0-9.05 3.732-10.586 8.939C42.761 44.184 40.44 46 37.77 46H6.094C3.28 46 1 43.663 1 40.78V27.71c0-2.807 1.805-5.277 4.433-6.066l17.96-2.094z"/>
            <rect width="29" height="16" x="91" y="3" fill="#ACCAEB" rx="1"/>
            <path fill="#ACCAEB" d="M51.865 19c.496 0 .945-.345 1.145-.88l4.882-13.05c.365-.975-.24-2.07-1.145-2.07H35.689c-.478 0-.913.32-1.124.825l-5.435 13.05c-.408.98.197 2.125 1.123 2.125h21.612zM35.813 33H5.187C3.98 33 3 31.896 3 30.534v-4.068C3 25.104 3.98 24 5.187 24h30.626C37.02 24 38 25.104 38 26.466v4.068C38 31.896 37.02 33 35.813 33M1.494 42h35.012c.822 0 1.494-.9 1.494-2s-.672-2-1.494-2H1.494C.672 38 0 38.9 0 40s.672 2 1.494 2"/>
            <g transform="translate(119 38)">
                <mask id="h" fill="#fff">
                    <use xlink:href="#g"/>
                </mask>
                <path fill="#ACCAEB" d="M1.573 3.836h2.824c.784 0 1.425-.83 1.425-1.845C5.822.975 5.18.145 4.397.145H1.573C.79.145.15.975.15 1.991c0 1.015.64 1.845 1.424 1.845" mask="url(#h)"/>
            </g>
            <path fill="#ACCAEB" d="M63.492 3.72l-6.374 13.524c-.387.82.226 1.756 1.148 1.756h29.468c.827 0 1.433-.765 1.225-1.548V4a1 1 0 0 0-1-1H64.64c-.33 0-.712.24-1.15.72zM79.346 28h7.308c.744 0 1.346-.672 1.346-1.5s-.602-1.5-1.346-1.5h-7.308c-.744 0-1.346.672-1.346 1.5s.602 1.5 1.346 1.5M109 24.5a2.5 2.5 0 1 0 5 0 2.5 2.5 0 0 0-5 0"/>
        </g>
        <g>
            <g transform="translate(525 48)">
                <mask id="j" fill="#fff">
                    <use xlink:href="#i"/>
                </mask>
                <path fill="#C5D9EF" d="M2.83.37l43.601 4.038c.874.08 1.702.436 2.376 1.02 1.473 1.273.718 3.764-1.19 3.93L9.334 12.675a2.102 2.102 0 0 1-1.8-.766L1.018 4.04C-.236 2.526.916.193 2.83.37" mask="url(#j)"/>
            </g>
            <path fill="#C5D9EF" d="M542.015 64.003l18.652 1.707c.374.035.727.204 1.011.486.623.615.285 1.84-.534 1.933l-16.419 1.866c-.293.033-.578-.102-.766-.364l-2.743-3.817c-.528-.735-.02-1.885.799-1.81"/>
            <path fill="#DDE7F2" d="M549.712 67.292c1.778 2.06 2.094 5.701-1.515 6.472-3.61.77-13.626.018-24.186-7.81-10.562-7.827-22.248-21.662-22.804-24.01-.555-2.35-.242-7.056 4.083-7.88 4.325-.825 14.407 6.569 17.885 9.31 3.477 2.74 15.84 11.517 26.537 23.918"/>
            <g transform="translate(471 50)">
                <mask id="l" fill="#fff">
                    <use xlink:href="#k"/>
                </mask>
                <path fill="#ACCAEB" d="M42.868.024C25.338 2.97 1.53 12.192 1.53 12.192.068 12.61-.498 14.683.506 15.943l.217.272c.846 1.061 2.085 1.587 3.343 1.418 0 0 31.245-3.773 48.825-5.885C52.041 7.376 47.141.943 42.868.024" mask="url(#l)"/>
            </g>
            <path fill="#ACCAEB" d="M537.263 66c-5.987 1.2-16.41 5.193-16.41 5.193-.825.204-1.133 1.26-.558 1.91l.124.14a2.21 2.21 0 0 0 1.899.744s10.75-.964 20.682-1.939c-.506-2.239-3.315-5.554-5.737-6.048M541 61.174l6.478-8.492a1.734 1.734 0 0 1 2.42-.334l1.208.908c.733.55 1.056 1.49.816 2.374L548.562 68 541 61.174z"/>
        </g>
        <g>
            <path fill="#629EE0" d="M269.197 121.02l33.838-9.5c7.32-2.056 15.17.142 20.296 5.682l93.1 100.596-69.17 49.95c-5.264 3.801-12.385 3.843-17.671.106l-76.846-54.348 16.453-92.487z"/>
            <path fill="#EAC800" d="M432.305 222.025l50.446-9.257c6.093-1.119 10.123-6.969 9.005-13.066l-17.02-92.773c-1.12-6.1-6.965-10.138-13.057-9.02l-50.446 9.258c-6.092 1.119-10.122 6.97-9.004 13.068l17.021 92.773c1.118 6.098 6.963 10.135 13.055 9.017"/>
            <path fill="#FFED75" d="M407.125 119.485l-33.032-9.06a20.92 20.92 0 0 0-21.29 6.415l-81.362 93.07c-4.61 5.275-6.752 16.205-1.061 20.293l55.95 40.154c4.148 2.979 15.795 2.335 19.913-.674l77.977-56.985-17.095-93.213z"/>
            <g transform="rotate(-9 872.342 -2514.13)">
                <mask id="n" fill="#fff">
                    <use xlink:href="#m"/>
                </mask>
                <path fill="#FEDD00" d="M13.756 119.613l51.137-1.265c6.177-.153 11.059-5.351 10.909-11.612L73.51 11.494C73.359 5.232 68.233.28 62.056.432L10.918 1.697C4.742 1.85-.141 7.05.009 13.31l2.293 95.244c.15 6.261 5.277 11.212 11.454 11.059" mask="url(#n)"/>
            </g>
            <path fill="#629EE0" d="M416.591 218.557c-14.598 27.458-43.498 50.947-71.942 51.96-3.428-2.43-10.322-7.772-20.683-16.03-4.684-5.235-3.812-13.37 1.874-17.507l49.653-50.61a11.915 11.915 0 0 1 13.929-.065c13.216 15.246 22.273 25.997 27.17 32.252zM315.033 111.964l64.856 18.242c4.397 1.29 4.947 7.16.891 9.311-3.255 1.728-7.645 2.99-13.325 2.547-14.882-1.157-37.632.36-37.632.36l-14.79-30.46z"/>
            <path fill="#FFF7C2" d="M489.304 197.107a8.998 8.998 0 0 1-8.25 9.69 9 9 0 1 1 8.25-9.69"/>
            <path fill="#005696" d="M235.977 221.883l-50.719-8.885c-6.125-1.075-10.225-6.917-9.157-13.054l16.23-93.348c1.067-6.137 6.896-10.242 13.022-9.169l50.719 8.886c6.124 1.073 10.224 6.917 9.156 13.053l-16.23 93.35c-1.066 6.136-6.895 10.24-13.02 9.167"/>
            <path fill="#0064D2" d="M241.155 222.736l-50.72-8.885c-6.124-1.075-10.224-6.917-9.157-13.054l16.23-93.348c1.068-6.137 6.896-10.242 13.022-9.169l50.719 8.886c6.126 1.073 10.224 6.917 9.157 13.053l-16.23 93.35c-1.067 6.136-6.896 10.24-13.021 9.167"/>
            <path fill="#629EE0" d="M208.084 197.342c.41 5.11-3.388 9.584-8.486 9.992-5.097.407-9.563-3.404-9.974-8.514-.411-5.11 3.389-9.585 8.486-9.992 5.098-.406 9.563 3.404 9.974 8.514"/>
        </g>
    </g>
</svg>
