<svg xmlns="http://www.w3.org/2000/svg" xmlns:xlink="http://www.w3.org/1999/xlink" width="380" height="247" viewBox="0 0 380 247">
    <defs>
        <path id="a" d="M.578 27.015h53.536C54.114 12.206 42.029.023 27.347.023 12.662.023.577 12.206.577 27.015z"/>
        <path id="c" d="M.578 27.015h53.536C54.114 12.206 42.029.023 27.347.023 12.662.023.577 12.206.577 27.015"/>
        <path id="e" d="M0 27.015h54.095c0-14.809-12.21-26.992-27.049-26.992C12.21.023.001 12.206.001 27.015z"/>
        <path id="g" d="M0 27.015h54.095c0-14.809-12.21-26.992-27.049-26.992C12.21.023.001 12.206.001 27.015"/>
        <path id="i" d="M.002.325h189.917v190.523H.002z"/>
        <path id="k" d="M.007.725h143.47V74.53H.007z"/>
        <path id="m" d="M.328.725H143.8V74.53H.328z"/>
        <path id="o" d="M0 .725h143.471V74.53H0z"/>
        <path id="q" d="M0 .725h137.682V74.53H0z"/>
        <path id="s" d="M95.24.334C42.512.46-.125 43.252.003 95.908c.126 52.656 42.974 95.241 95.7 95.116 52.725-.129 95.368-42.918 95.24-95.577C190.814 42.925 148.186.427 95.644.334"/>
        <path id="u" d="M95.24.334C42.512.46-.125 43.252.003 95.908c.126 52.656 42.974 95.241 95.7 95.116 52.725-.129 95.368-42.918 95.24-95.577C190.814 42.925 148.186.427 95.644.334"/>
        <path id="w" d="M95.24.334C42.512.46-.125 43.252.003 95.908c.126 52.656 42.974 95.241 95.7 95.116 52.725-.129 95.368-42.918 95.24-95.577C190.814 42.925 148.186.427 95.644.334"/>
        <path id="y" d="M95.24.334C42.512.46-.125 43.252.003 95.908c.126 52.656 42.974 95.241 95.7 95.116 52.725-.129 95.368-42.918 95.24-95.577C190.814 42.925 148.186.427 95.644.334"/>
        <path id="A" d="M95.24.334C42.512.46-.125 43.252.003 95.908c.126 52.656 42.974 95.241 95.7 95.116 52.725-.129 95.368-42.918 95.24-95.577"/>
    </defs>
    <g fill="none" fill-rule="evenodd">
        <ellipse cx="184" cy="231.5" fill="#ACCAEB" rx="184" ry="15.5"/>
        <path fill="#148AF4" d="M194.905 230.92h-27.05c0-14.759 12.212-26.9 27.05-26.9 14.836 0 27.047 12.141 27.047 26.9h-27.047z"/>
        <path fill="#FFF" d="M221.285 234.023h-52.763a1.702 1.702 0 0 1-1.707-1.698v-1.262c0-.937.766-1.695 1.707-1.695h52.763c.941 0 1.707.758 1.707 1.695v1.262c0 .94-.766 1.698-1.707 1.698"/>
        <g transform="translate(168 203)">
            <mask id="b" fill="#fff">
                <use xlink:href="#a"/>
            </mask>
            <path fill="#FFF" d="M38.156 27.015H22.2c0-8.828 7.205-16.093 15.956-16.093 8.754 0 15.959 7.265 15.959 16.093h-15.96z" mask="url(#b)"/>
        </g>
        <g transform="translate(168 203)">
            <mask id="d" fill="#fff">
                <use xlink:href="#c"/>
            </mask>
            <path fill="#FFF" d="M22.2 13.21a.727.727 0 0 1-.623-1.09c2.497-4.361 6.762-6.666 12.326-6.666 3.862 0 6.946 1.106 7.074 1.15a.732.732 0 0 1 .434.933.737.737 0 0 1-.926.44c-.028-.012-2.982-1.066-6.582-1.066-5.093 0-8.821 1.997-11.08 5.935a.714.714 0 0 1-.623.363" mask="url(#d)"/>
        </g>
        <path fill="#148AF4" d="M275.684 230.92H248.82c0-14.759 12.126-26.9 26.864-26.9 14.738 0 26.864 12.141 26.864 26.9h-26.864z"/>
        <path fill="#FFF" d="M301.886 234.023h-52.404a1.695 1.695 0 0 1-1.695-1.698v-1.262c0-.937.757-1.695 1.695-1.695h52.404c.938 0 1.696.758 1.696 1.695v1.262c0 .94-.758 1.698-1.696 1.698"/>
        <g>
            <g transform="translate(248 203)">
                <mask id="f" fill="#fff">
                    <use xlink:href="#e"/>
                </mask>
                <path fill="#FFF" d="M37.972 27.015H21.845c0-8.828 7.281-16.093 16.127-16.093 8.844 0 16.124 7.265 16.124 16.093H37.972z" mask="url(#f)"/>
            </g>
            <g transform="translate(248 203)">
                <mask id="h" fill="#fff">
                    <use xlink:href="#g"/>
                </mask>
                <path fill="#FFF" d="M21.846 13.21a.744.744 0 0 1-.364-.1.723.723 0 0 1-.266-.991c2.526-4.36 6.837-6.665 12.46-6.665 3.9 0 7.015 1.106 7.144 1.15a.73.73 0 0 1 .439.933.747.747 0 0 1-.936.44c-.027-.012-3.013-1.066-6.648-1.066-5.144 0-8.914 1.997-11.199 5.935a.727.727 0 0 1-.63.363" mask="url(#h)"/>
            </g>
        </g>
        <g>
            <path fill="#FFF" d="M339.407 76.493c6.168 7.769 17.444 9.048 25.188 2.861 7.742-6.193 9.017-17.505 2.85-25.274-6.168-7.766-17.447-9.046-25.188-2.855-7.742 6.187-9.017 17.502-2.85 25.268"/>
            <path fill="#FFF" d="M362.447 70.137a4.48 4.48 0 0 1-4.076-2.623 4.5 4.5 0 0 1 2.207-5.961l12.941-5.952c2.244-1.048 4.91-.043 5.94 2.214a4.498 4.498 0 0 1-2.208 5.958l-12.94 5.952a4.402 4.402 0 0 1-1.864.412"/>
            <path fill="#FFF" d="M360.651 63.931a4.47 4.47 0 0 1-2.977-1.133 4.51 4.51 0 0 1-.371-6.35l9.461-10.672a4.468 4.468 0 0 1 6.33-.373 4.51 4.51 0 0 1 .37 6.349l-9.458 10.673a4.47 4.47 0 0 1-3.355 1.506"/>
            <path fill="#FFF" d="M356.061 59.854c-.35 0-.709-.043-1.068-.131-2.405-.587-3.876-3.02-3.288-5.433l3.382-13.877c.585-2.41 3.008-3.9 5.416-3.298 2.405.586 3.875 3.02 3.288 5.433l-3.38 13.876a4.486 4.486 0 0 1-4.35 3.43M346.599 59.475a4.487 4.487 0 0 1-4.475-4.327l-.527-14.274c-.091-2.48 1.839-4.569 4.31-4.657 2.536-.144 4.558 1.844 4.646 4.324l.527 14.274c.091 2.48-1.839 4.569-4.31 4.657-.059.003-.114.003-.171.003"/>
            <path fill="#FFF" d="M342.811 65.986a4.447 4.447 0 0 1-1.994-.474l-10.027-5.008a4.498 4.498 0 0 1-2.013-6.029 4.472 4.472 0 0 1 6.007-2.018l10.027 5.008a4.498 4.498 0 0 1 2.013 6.029 4.476 4.476 0 0 1-4.013 2.492"/>
            <g transform="translate(137.725)">
                <mask id="j" fill="#fff">
                    <use xlink:href="#i"/>
                </mask>
                <path fill="#FEDD02" d="M189.919 95.356c.128 52.612-42.287 95.364-94.727 95.492-52.446.125-95.065-42.422-95.19-95.034C-.126 43.204 42.286.453 94.73.324c52.446-.125 95.062 42.419 95.19 95.032" mask="url(#j)"/>
            </g>
            <path fill="#0D98FF" d="M65.419 174.462h10.399s4.806-31.22 11.656-36.058v-3.307s-16.728 13.935-22.055 39.365M134.46 174.462h-7.385s-14.649-31.73-21.498-36.565v-3.31s23.556 14.445 28.883 39.875"/>
            <g transform="translate(41.427 161.857)">
                <mask id="l" fill="#fff">
                    <use xlink:href="#k"/>
                </mask>
                <path fill="#6CC7FF" d="M5.542 74.53h129.951c4.627 0 8.268-4.932 7.967-10.753-.816-15.767-3.416-44.34-11.629-54.124-11.565-13.788-107.053-9.858-116.329 0C5.426 20.363 1.478 50.954.044 66.789c-.375 4.128 2.2 7.741 5.498 7.741" mask="url(#l)"/>
            </g>
            <g transform="translate(36.032 161.857)">
                <mask id="n" fill="#fff">
                    <use xlink:href="#m"/>
                </mask>
                <path fill="#0D98FF" d="M5.865 74.53h129.951c4.625 0 8.265-4.932 7.967-10.753-.819-15.767-3.416-44.34-11.629-54.124-11.568-13.788-107.053-9.858-116.329 0C5.75 20.363 1.798 50.954.364 66.789c-.375 4.128 2.204 7.741 5.5 7.741" mask="url(#n)"/>
            </g>
            <g transform="translate(19 161.857)">
                <mask id="p" fill="#fff">
                    <use xlink:href="#o"/>
                </mask>
                <path fill="#6CC7FF" d="M5.536 74.53h129.951c4.624 0 8.265-4.932 7.967-10.753-.819-15.767-3.416-44.34-11.629-54.124-11.565-13.788-107.053-9.858-116.329 0C5.42 20.363 1.47 50.954.035 66.789c-.375 4.128 2.204 7.741 5.5 7.741" mask="url(#p)"/>
            </g>
            <g transform="translate(19 161.857)">
                <mask id="r" fill="#fff">
                    <use xlink:href="#q"/>
                </mask>
                <path fill="#0064D2" d="M5.536 74.53H129.7c4.624 0 8.268-4.932 7.964-10.753-.816-15.767-3.416-44.34-11.626-54.124C114.47-4.135 18.985-.205 9.709 9.653-.367 20.363 1.47 50.954.035 66.789c-.375 4.128 2.204 7.741 5.5 7.741" mask="url(#r)"/>
            </g>
            <path fill="#0D98FF" d="M50.382 180.907c16.706-5.635 62.878-3.564 70.805 0 6.022 2.709 9.419 30.398 7.568 43.54a7.956 7.956 0 0 1-7.881 6.85H50.969a7.954 7.954 0 0 1-7.906-7.05c-1.522-13.229-.53-40.695 7.319-43.34"/>
            <path fill="#6CC7FF" d="M49.546 180.907c14.941-5.635 56.242-3.564 63.332 0 5.386 2.709 8.424 30.398 6.768 43.54-.497 3.936-3.501 6.85-7.048 6.85H50.073c-3.614 0-6.66-3.024-7.072-7.05-1.364-13.229-.478-40.695 6.545-43.34"/>
            <path fill="#0064D2" d="M85.114 195.162c-15.465 0-30.525-.445-30.753-.448a1.146 1.146 0 0 1 .034-2.29h.033c.338.005 34.165.998 52.418.002.606-.098 1.166.446 1.2 1.078a1.139 1.139 0 0 1-1.075 1.206c-6.155.34-14.058.452-21.857.452"/>
            <path fill="#CAE4FC" d="M103.587 205.848a1.997 1.997 0 0 1-1.988-1.994v-8.065c0-1.097.895-1.995 1.988-1.995s1.988.898 1.988 1.995v8.065a1.997 1.997 0 0 1-1.988 1.994"/>
            <path fill="#0064D2" d="M164.85 176.263h-4.795s-1.392-13.678-47.439-13.678h5.708s41.07 0 46.525 13.678"/>
            <path fill="#CAE4FC" d="M163.895 188.333a2.424 2.424 0 0 1-2.703-2.098l-1.233-9.727a2.435 2.435 0 0 1 2.094-2.712 2.426 2.426 0 0 1 2.7 2.101l1.233 9.724a2.43 2.43 0 0 1-2.091 2.712"/>
            <path fill="#6CC7FF" d="M54.904 174.462h10.399s14.18-31.73 21.03-36.565v-3.31s-26.102 14.445-31.43 39.875M119.893 174.462h-10.402s4.49-33.69-4.542-36.235l-.198-4.022s13.383 6.236 15.142 40.257"/>
            <path fill="#0064D2" d="M103.56 139.312H87.083a2.019 2.019 0 0 1-2.015-2.021v-2.205c0-1.118.904-2.022 2.015-2.022h16.479c1.114 0 2.015.904 2.015 2.022v2.205a2.017 2.017 0 0 1-2.015 2.021"/>
            <path fill="#FFF" d="M104.414 141.382c-8.272 3.723-17.98.015-21.69-8.282-3.714-8.295-.016-18.037 8.252-21.76 8.271-3.722 17.98-.015 21.69 8.283 3.711 8.294.016 18.036-8.252 21.759"/>
        </g>
        <g>
            <g transform="translate(130 3)">
                <mask id="t" fill="#fff">
                    <use xlink:href="#s"/>
                </mask>
                <path fill="#FFF" d="M38.273 69.7l130.866-.318c5.888-.012 9.631 6.263 6.834 11.441-8.01 14.822-27.806 38.767-72.145 38.874-44.342.11-64.254-23.74-72.338-38.525-2.821-5.166.894-11.456 6.783-11.472" mask="url(#t)"/>
            </g>
            <g transform="translate(130 3)">
                <mask id="v" fill="#fff">
                    <use xlink:href="#u"/>
                </mask>
                <path fill="#0264D2" d="M164.287 50.922c.01 3.762-3.036 6.822-6.81 6.831a6.821 6.821 0 0 1-6.84-6.8c-.01-3.766 3.039-6.823 6.813-6.832 3.767-.01 6.83 3.038 6.837 6.8" mask="url(#v)"/>
            </g>
            <g transform="translate(130 3)">
                <mask id="x" fill="#fff">
                    <use xlink:href="#w"/>
                </mask>
                <path fill="#FFF" d="M158.686 47.722a1.942 1.942 0 0 1-3.884.01c0-1.07.87-1.939 1.938-1.942a1.938 1.938 0 0 1 1.946 1.932" mask="url(#x)"/>
            </g>
            <g transform="translate(130 3)">
                <mask id="z" fill="#fff">
                    <use xlink:href="#y"/>
                </mask>
                <path fill="#FFF" d="M162.3 48.436a1.216 1.216 0 0 1-1.213 1.22 1.221 1.221 0 0 1-1.224-1.214c0-.673.545-1.217 1.218-1.217a1.213 1.213 0 0 1 1.218 1.21" mask="url(#z)"/>
            </g>
            <g transform="translate(130 3)">
                <mask id="B" fill="#fff">
                    <use xlink:href="#A"/>
                </mask>
                <path fill="#0264D2" d="M51.198 52.738a2.47 2.47 0 0 1-.294-3.478c.132-.156 3.297-3.84 8.325-4.2 3.428-.235 6.834 1.079 10.06 3.946a2.47 2.47 0 0 1-3.284 3.69c-2.194-1.95-4.33-2.831-6.424-2.715-2.923.214-4.882 2.436-4.9 2.46a2.468 2.468 0 0 1-1.888.878c-.567 0-1.13-.19-1.595-.58z" mask="url(#B)"/>
            </g>
        </g>
    </g>
</svg>
